<svg xmlns="http://www.w3.org/2000/svg" width="263" height="241" viewBox="0 0 263 241">
    <defs>
        <clipPath id="erdga">
            <path d="M0 241.09V0h262.281v241.09z"/>
        </clipPath>
        <clipPath id="erdgb">
            <path d="M0 241.09V0h262.281v241.09z"/>
        </clipPath>
        <clipPath id="erdgc">
            <path d="M100.08 217.412v-10.09h1.484v10.09z"/>
        </clipPath>
        <clipPath id="erdgd">
            <path d="M187.655 184.08v-22.35h33.797v22.35z"/>
        </clipPath>
        <clipPath id="erdge">
            <path d="M193.152 165.041v-9.09h11.398v9.09z"/>
        </clipPath>
        <clipPath id="erdgf">
            <path d="M151.705 200.158v-8.872h7.167v8.872z"/>
        </clipPath>
    </defs>
    <g>
        <g>
            <g>
                <g/>
                <g clip-path="url(#erdga)">
                    <g>
                        <g clip-path="url(#erdgb)">
                            <path fill="#e0e0e0"
                                  d="M57.993 161.83l6.38 1.353-6.38 1.864c-.813.235-1.428.9-1.6 1.728L54.8 174.42l-1.764-7.497a2.293 2.293 0 0 0-1.723-1.71l-6.38-1.453 6.557-1.846a2.287 2.287 0 0 0 1.628-1.764l1.464-7.35 1.653 7.303c.197.87.884 1.545 1.758 1.728"/>
                        </g>
                        <g clip-path="url(#erdgb)">
                            <path fill="#e0e0e0"
                                  d="M28.464 216.619l3.346.705-3.352.982c-.42.126-.735.475-.817.906l-.84 4.01-.924-3.94c-.1-.45-.454-.799-.905-.894l-3.346-.764 3.44-.97c.437-.122.769-.479.858-.923l.765-3.857.864 3.833c.102.455.457.81.911.912"/>
                        </g>
                        <g clip-path="url(#erdgb)">
                            <path fill="#e0e0e0"
                                  d="M75.638 155.41l1.94.411-1.94.588a.68.68 0 0 0-.488.523l-.488 2.352-.535-2.287a.7.7 0 0 0-.53-.517l-1.94-.441 2-.588a.705.705 0 0 0 .493-.535l.447-2.24.5 2.222c.07.259.279.456.541.512"/>
                        </g>
                        <g clip-path="url(#erdgb)">
                            <path fill="#e0e0e0"
                                  d="M85.228 194.74l1.946.405-1.946.588a.7.7 0 0 0-.488.53l-.482 2.322-.535-2.281a.719.719 0 0 0-.53-.524l-1.94-.44 2-.589a.694.694 0 0 0 .493-.535l.447-2.24.5 2.223a.7.7 0 0 0 .535.54"/>
                        </g>
                        <g clip-path="url(#erdgb)">
                            <path fill="#e0e0e0"
                                  d="M37.86 207.693l1.6.335-1.6.47a.587.587 0 0 0-.4.43l-.411 1.916-.441-1.881a.587.587 0 0 0-.43-.43l-1.587-.346 1.64-.465a.588.588 0 0 0 .412-.44l.365-1.841.411 1.829a.588.588 0 0 0 .441.423"/>
                        </g>
                        <g clip-path="url(#erdgb)">
                            <path fill="#e0e0e0"
                                  d="M144.161 225.856l1.6.335-1.6.464a.588.588 0 0 0-.4.435l-.4 1.911-.44-1.875a.587.587 0 0 0-.43-.43l-1.599-.364 1.64-.459a.588.588 0 0 0 .406-.44l.37-1.841.412 1.829a.588.588 0 0 0 .441.435"/>
                        </g>
                        <g clip-path="url(#erdgb)">
                            <path fill="#e0e0e0"
                                  d="M101.639 114.968l1.599.341-1.6.465a.588.588 0 0 0-.4.435l-.4 1.91-.44-1.875a.587.587 0 0 0-.43-.43l-1.599-.364 1.64-.464a.588.588 0 0 0 .412-.441l.365-1.84.412 1.828a.588.588 0 0 0 .44.435"/>
                        </g>
                        <g clip-path="url(#erdgb)">
                            <path fill="#e0e0e0"
                                  d="M249.734 167.304l1.599.341-1.6.465a.588.588 0 0 0-.4.435l-.399 1.911-.441-1.876a.587.587 0 0 0-.435-.429l-1.594-.364 1.641-.465a.552.552 0 0 0 .406-.435l.37-1.846.412 1.828a.588.588 0 0 0 .44.435"/>
                        </g>
                        <g clip-path="url(#erdgb)">
                            <path fill="#e0e0e0"
                                  d="M223.24 121.348l1.599.335-1.6.47a.587.587 0 0 0-.4.43l-.4 1.916-.44-1.881a.588.588 0 0 0-.436-.43l-1.593-.358 1.64-.465a.588.588 0 0 0 .406-.44l.37-1.841.412 1.829a.588.588 0 0 0 .441.435"/>
                        </g>
                        <g clip-path="url(#erdgb)">
                            <path fill="#e0e0e0"
                                  d="M168.169 33.033l1.593.34-1.593.465a.588.588 0 0 0-.4.435l-.4 1.911-.44-1.875a.587.587 0 0 0-.436-.43l-1.6-.364 1.647-.465a.588.588 0 0 0 .406-.44l.364-1.84.418 1.828a.588.588 0 0 0 .44.435"/>
                        </g>
                        <g clip-path="url(#erdgb)">
                            <path fill="#e0e0e0"
                                  d="M101.68 201.449l3.234.687-3.234.941a1.177 1.177 0 0 0-.812.882l-.811 3.87-.894-3.8a1.175 1.175 0 0 0-.87-.87l-3.24-.734 3.328-.941c.42-.12.739-.461.83-.888l.74-3.728.835 3.704c.105.44.452.78.894.877"/>
                        </g>
                        <g clip-path="url(#erdgb)">
                            <path fill="#e0e0e0"
                                  d="M108.518 131.02l3.234.682-3.234.947c-.41.123-.72.458-.811.876l-.806 3.875-.894-3.805a1.175 1.175 0 0 0-.876-.864l-3.234-.735 3.328-.94c.42-.123.736-.467.823-.894l.741-3.728.835 3.704c.103.442.45.785.894.882"/>
                        </g>
                        <g clip-path="url(#erdgb)">
                            <path fill="#e0e0e0"
                                  d="M153.657 13.47l3.234.683-3.234.946c-.413.122-.727.46-.817.882l-.805 3.87-.918-3.805a1.175 1.175 0 0 0-.876-.864l-3.234-.735 3.328-.941c.418-.121.734-.463.823-.888l.741-3.728.841 3.699c.107.448.465.793.917.882"/>
                        </g>
                        <g clip-path="url(#erdgb)">
                            <path fill="#e0e0e0"
                                  d="M246.235 93.201l5.557 1.176L246.235 96a1.999 1.999 0 0 0-1.4 1.511l-1.404 6.65-1.517-6.515a2.006 2.006 0 0 0-1.506-1.487l-5.556-1.265 5.715-1.61a2.005 2.005 0 0 0 1.417-1.535l1.276-6.41 1.44 6.363a2 2 0 0 0 1.535 1.499"/>
                        </g>
                        <g clip-path="url(#erdgb)">
                            <path fill="#e0e0e0" d="M22.596.041h51.99V54.23h-51.99zM74.615 0H22.567v54.259h52.048z"/>
                        </g>
                        <g clip-path="url(#erdgb)">
                            <path fill="#e0e0e0"
                                  d="M29.576 47.22c-.273.397-.588.762-.941 1.089-.588.64-1.458 1.51-2.417 2.452-.958.94-1.834 1.763-2.487 2.38a5.734 5.734 0 0 1-1.1.912c.273-.396.586-.763.935-1.093.588-.641 1.464-1.506 2.423-2.452.958-.947 1.84-1.764 2.493-2.382a5.77 5.77 0 0 1 1.094-.905"/>
                        </g>
                        <g clip-path="url(#erdgb)">
                            <path fill="#e0e0e0"
                                  d="M67.624 47.12c.4.27.768.586 1.093.942.641.588 1.512 1.458 2.452 2.416.941.959 1.764 1.835 2.352 2.482.348.329.656.698.918 1.1a5.743 5.743 0 0 1-1.088-.93c-.641-.588-1.511-1.464-2.452-2.422-.94-.959-1.764-1.847-2.387-2.493a6.038 6.038 0 0 1-.888-1.094"/>
                        </g>
                        <g clip-path="url(#erdgb)">
                            <path fill="#e0e0e0"
                                  d="M67.506 7.414c.268-.4.582-.766.935-1.093.588-.641 1.464-1.505 2.423-2.452a83.933 83.933 0 0 1 2.48-2.352c.327-.351.696-.66 1.1-.917-.267.393-.583.75-.94 1.064-.588.64-1.464 1.511-2.423 2.458-.958.946-1.84 1.764-2.487 2.381-.326.345-.69.652-1.088.911"/>
                        </g>
                        <g clip-path="url(#erdgb)">
                            <path fill="#e0e0e0"
                                  d="M29.47 7.509a6.172 6.172 0 0 1-1.094-.935c-.64-.588-1.505-1.464-2.446-2.423a92.533 92.533 0 0 1-2.352-2.481 6.518 6.518 0 0 1-.917-1.1c.4.265.766.579 1.088.935.64.588 1.51 1.464 2.457 2.423.947.958 1.764 1.84 2.352 2.487.346.327.652.694.912 1.094"/>
                        </g>
                        <g clip-path="url(#erdgb)">
                            <path fill="#e0e0e0"
                                  d="M67.506 46.956a1.337 1.337 0 0 1 0-.194V44.07c0-1.882 0-4.61-.04-8.08 0-6.944-.042-16.84-.071-28.681l.147.147H29.61l.164-.165v39.648l-.14-.147 27.464.076 7.714.035H67.565 64.873l-7.686.042-27.611.135h-.171V7.12h38.248v.146c-.035 11.884-.059 21.809-.076 28.776 0 3.452 0 6.174-.041 8.044v2.652c0 .13-.03.217-.03.217"/>
                        </g>
                        <g clip-path="url(#erdgb)">
                            <path fill="#e0e0e0" d="M22.55 67.765h51.988v54.194H22.55zm52.024-.03H22.52v54.26h52.054z"/>
                        </g>
                        <g clip-path="url(#erdgb)">
                            <path fill="#e0e0e0"
                                  d="M29.528 114.95a6.392 6.392 0 0 1-.94 1.094c-.588.641-1.459 1.505-2.417 2.452a76.466 76.466 0 0 1-2.487 2.352c-.33.347-.7.654-1.1.917.273-.389.588-.746.941-1.064.588-.64 1.464-1.511 2.423-2.458.958-.946 1.84-1.764 2.493-2.381.325-.345.69-.652 1.087-.911"/>
                        </g>
                        <g clip-path="url(#erdgb)">
                            <path fill="#e0e0e0"
                                  d="M67.56 114.856c.4.266.768.58 1.093.935.64.588 1.51 1.464 2.452 2.417a83.58 83.58 0 0 1 2.352 2.487c.35.326.659.696.917 1.1a6.205 6.205 0 0 1-1.088-.935c-.64-.588-1.511-1.464-2.452-2.423-.94-.958-1.764-1.84-2.387-2.487a6.32 6.32 0 0 1-.888-1.094"/>
                        </g>
                        <g clip-path="url(#erdgb)">
                            <path fill="#e0e0e0"
                                  d="M67.46 75.144c.269-.397.582-.762.934-1.088.588-.64 1.464-1.51 2.423-2.452.958-.94 1.834-1.763 2.48-2.38a5.963 5.963 0 0 1 1.1-.912c-.267.397-.58.76-.934 1.082-.588.64-1.465 1.51-2.423 2.457-.958.947-1.84 1.764-2.487 2.382a5.742 5.742 0 0 1-1.094.911"/>
                        </g>
                        <g clip-path="url(#erdgb)">
                            <path fill="#e0e0e0"
                                  d="M29.405 75.244a6.393 6.393 0 0 1-1.094-.94c-.64-.589-1.505-1.459-2.446-2.417-.94-.959-1.752-1.835-2.34-2.464-.347-.33-.654-.7-.917-1.1.397.27.762.583 1.088.935.64.588 1.51 1.464 2.457 2.423.947.958 1.764 1.84 2.352 2.493.343.319.645.678.9 1.07"/>
                        </g>
                        <g clip-path="url(#erdgb)">
                            <path fill="#e0e0e0"
                                  d="M67.46 114.698a1.117 1.117 0 0 1 0-.188v-.56.001-2.14c0-1.876 0-4.61-.042-8.08 0-6.943-.041-16.833-.07-28.681l.146.147h-37.93l.164-.17v39.647l-.14-.141 27.464.07 7.714.042h2.752a.92.92 0 0 1-.17 0h-2.522l-7.686.035-27.553.077h-.182V74.885h38.219v.147c-.035 11.884-.059 21.809-.077 28.776 0 3.458-.029 6.18-.04 8.05v2.646c-.013.065-.028.13-.048.194"/>
                        </g>
                        <g clip-path="url(#erdgb)">
                            <path fill="#fff"
                                  d="M212.814 73.227a29.25 29.25 0 0 1-17.598-4.833l-12.936 3.152 5.633-9.996c-9.76-12.976-7.15-31.407 5.825-41.166 12.977-9.76 31.408-7.151 41.167 5.825 9.76 12.976 7.151 31.407-5.825 41.166a29.397 29.397 0 0 1-16.266 5.87z"/>
                        </g>
                        <g clip-path="url(#erdgb)">
                            <path fill="#263238"
                                  d="M212.814 73.227s.177-.03.512-.064l1.5-.165c.328-.041.699-.065 1.105-.13l1.31-.276c.477-.1.989-.194 1.53-.323l1.699-.535a28.282 28.282 0 0 0 8.12-4.151c.374-.258.73-.539 1.07-.841l1.088-.9c.369-.31.72-.642 1.052-.993l1.053-1.065c.688-.74 1.317-1.57 2.005-2.387l.905-1.346c.324-.45.62-.92.888-1.406a27.41 27.41 0 0 0 1.546-3.08l.688-1.641.541-1.735c.089-.294.183-.588.277-.882.094-.294.13-.588.194-.911.123-.588.253-1.229.376-1.858.124-.63.141-1.27.212-1.911.035-.323.07-.647.1-.97.03-.324 0-.659 0-.988v-1.993c-.03-.67-.124-1.34-.183-2.023-.035-.335-.064-.676-.1-1.017-.035-.341-.129-.676-.194-1.017a615.88 615.88 0 0 1-.423-2.052 32.059 32.059 0 0 0-3.38-7.944 30.574 30.574 0 0 0-5.88-6.885c-.589-.482-1.177-1.017-1.83-1.464l-1.957-1.323c-.682-.394-1.394-.759-2.093-1.176-.177-.088-.347-.194-.53-.277l-.552-.235-1.112-.47a28.86 28.86 0 0 0-19.556-.83l-.929.289-.464.141-.453.188-1.764.753-.441.194-.423.23-.853.458a16.68 16.68 0 0 0-1.664.993l-1.582 1.065c-.529.352-.988.793-1.487 1.176a28.811 28.811 0 0 0-10.531 22.102v1.693c.035.588.059 1.123.123 1.676.108 1.097.283 2.187.524 3.263a29.224 29.224 0 0 0 5.162 11.272l.053.065-.041.076-5.645 9.996-.129-.165 12.936-3.128h.064a29.62 29.62 0 0 0 7.02 3.44 30.008 30.008 0 0 0 5.675 1.276c1.2.138 2.408.212 3.616.223h1.246-.311l-.935.035a30.768 30.768 0 0 1-3.628-.176 29.25 29.25 0 0 1-12.789-4.64h.071l-12.936 3.176-.252.059.129-.224c1.764-3.11 3.61-6.468 5.621-9.995v.135a29.355 29.355 0 0 1-5.227-11.366 27.58 27.58 0 0 1-.535-3.293c-.065-.558-.094-1.123-.13-1.687-.035-.565 0-1.14 0-1.717a28.981 28.981 0 0 1 7.832-19.721 29.803 29.803 0 0 1 2.805-2.616c.5-.394.964-.841 1.5-1.176l1.599-1.082c.54-.354 1.1-.678 1.675-.97l.859-.465.43-.235.446-.188 1.805-.765.459-.188.47-.147.94-.288a29.93 29.93 0 0 1 10.102-1.3c3.314.18 6.576.903 9.655 2.14l1.123.477.559.235c.188.088.358.194.535.288.711.388 1.423.759 2.117 1.176l1.975 1.312c.653.452 1.229.993 1.846 1.481a30.532 30.532 0 0 1 5.95 6.956 32.267 32.267 0 0 1 3.405 8.026l.424 2.07c.064.34.152.682.194 1.023.04.34.064.688.1 1.029.058.688.152 1.364.176 2.04.023.676 0 1.347 0 2.011v.994l-.106.982c-.076.646-.117 1.293-.217 1.928-.1.635-.26 1.253-.389 1.87-.064.306-.117.617-.2.917-.082.3-.182.588-.276.888-.182.588-.37 1.176-.547 1.764l-.7 1.652a27.247 27.247 0 0 1-1.57 3.099c-.27.488-.571.959-.899 1.411-.311.453-.588.906-.917 1.352-.694.818-1.329 1.659-2.023 2.4l-1.07 1.064c-.333.355-.688.69-1.064 1l-1.094.899c-.341.303-.703.584-1.082.84a28.34 28.34 0 0 1-8.184 4.117l-1.706.517c-.546.13-1.064.218-1.54.318l-1.317.258c-.406.065-.776.077-1.111.112l-1.506.135c-.358.035-.535.041-.535.041"/>
                        </g>
                        <g clip-path="url(#erdgb)">
                            <path fill="#7229b5"
                                  d="M213.79 29.905c.27-1.206.259-2.523.941-3.528a3.01 3.01 0 0 1 5.486 1.24c.188 1.388-.588 2.776-.376 4.158a3.963 3.963 0 0 0 2.352 2.787 7.49 7.49 0 0 0 2.51.946c.077 0 .159 0 .235.036a3.975 3.975 0 0 1 .553 7.726c-1.423.446-3.369.323-3.922 1.705-.482 1.211.653 2.41 1.635 3.263.982.853 2.028 2.193 1.37 3.322-.494.847-1.67.976-2.646.841s-1.993-.423-2.905-.065c-1.234.488-1.764 1.958-1.846 3.281-.082 1.323.094 2.687-.359 3.934-.452 1.246-1.893 2.293-3.08 1.705-1.994-.988-.694-4.78-2.676-5.798-.994-.517-2.222.077-3.022.865-.8.788-1.411 1.764-2.352 2.352a3.41 3.41 0 0 1-5.098-3.622c.241-1.176 1.053-2.088 1.605-3.128.553-1.041.788-2.44 0-3.299-1.146-1.223-3.187-.317-4.856-.553-2.058-.294-3.44-2.645-3.01-4.703.428-2.058 2.316-3.57 4.362-3.952 1.123-.211 2.293-.123 3.41-.376s2.252-.976 2.47-2.1c.276-1.469-1.088-2.721-1.423-4.18a3.14 3.14 0 0 1 5.004-3.169c1.176.917 1.852 2.728 3.345 2.764 1.182.023 2.023-1.253 2.293-2.452"/>
                        </g>
                        <g clip-path="url(#erdgb)">
                            <path fill="#fff"
                                  d="M197.956 46.368c0 .036-.353 0-.835-.247a2.864 2.864 0 0 1-1.205-3.716c.229-.494.5-.711.523-.688.024.024-.159.288-.323.77a2.94 2.94 0 0 0 1.123 3.446c.417.294.729.388.717.435"/>
                        </g>
                        <g clip-path="url(#erdgb)">
                            <path fill="#fff"
                                  d="M202.971 57.828c-.029 0-.211-.147-.405-.506a3.152 3.152 0 0 1 .13-3.028c.217-.34.417-.494.44-.47a5.835 5.835 0 0 0-.588 1.981c.021.694.165 1.379.423 2.023"/>
                        </g>
                        <g clip-path="url(#erdgb)">
                            <path fill="#fff"
                                  d="M203.706 49.931c-.088 0-.082-.47-.211-1.005-.13-.535-.33-.947-.259-.994.07-.047.418.324.553.923.135.6 0 1.088-.083 1.076"/>
                        </g>
                        <g clip-path="url(#erdgb)">
                            <path fill="#fff"
                                  d="M214.196 59.68c-.082 0-.253-.382-.382-.905-.13-.524-.159-.959-.083-.976.077-.018.253.388.383.905.129.518.164.959.082.976"/>
                        </g>
                        <g clip-path="url(#erdgb)">
                            <path fill="#fff"
                                  d="M205.335 34.897s-.241-.153-.482-.53a3.916 3.916 0 0 1-.33-3.34c.165-.417.336-.628.365-.587a7.645 7.645 0 0 0-.276 2.287c.129.756.373 1.488.723 2.17"/>
                        </g>
                        <g clip-path="url(#erdgb)" transform="rotate(-51.292 211.395 43.21)">
                            <path fill="#263238" d="M210.8 72.567V13.851h1.188v58.716z"/>
                        </g>
                        <g clip-path="url(#erdgb)">
                            <path fill="#ffbe9d" d="M110.511 182.804l-8.514 15.064 11.895 11.971 12.46-13.518z"/>
                        </g>
                        <g clip-path="url(#erdgb)">
                            <path fill="#e0e0e0"
                                  d="M37.049 230.13l16.116-.382s8.438-5.115 9.102-5.497c.665-.383 4.504-1.176 4.504-1.176l25.548 8.002v2.352H32.498v-1.782l2.752-.288z"/>
                        </g>
                        <g clip-path="url(#erdgb)">
                            <path fill="#7229b5"
                                  d="M102.932 195.733c-.482-.076-14.04 21.056-14.04 21.056l-16.2 2.97-17.957 9.995s-.405 2.029 1.623 2.164c2.029.135 12.936-4.704 12.936-4.704s-3.734 1.817-3.023 4.157c.835 2.746 7.88.588 7.88.588l15.046-.976a4.94 4.94 0 0 0 3.557-1.87l1.917-2.422 21.062-16.74s-1.864-12.6-12.8-14.218"/>
                        </g>
                        <g clip-path="url(#erdgb)">
                            <path fill="#263238"
                                  d="M78.913 224.203c-.1.145-.22.274-.359.383-.354.317-.729.61-1.123.876-.586.4-1.215.733-1.875.993a8.368 8.368 0 0 1-2.546.524c-.85.02-1.698.086-2.54.2a7.436 7.436 0 0 0-1.905.752c-1.041.588-1.576 1.088-1.611 1.047-.036-.041.1-.159.352-.388.357-.315.74-.599 1.147-.847a7.16 7.16 0 0 1 1.958-.84c.852-.134 1.713-.21 2.575-.23 1.54-.08 3.03-.56 4.328-1.394 1.005-.629 1.564-1.117 1.6-1.076"/>
                        </g>
                        <g clip-path="url(#erdgb)">
                            <path fill="#263238"
                                  d="M91.043 221.71c-.082 0-.282-1.175-.946-2.516a24.604 24.604 0 0 1-1.206-2.428 8.233 8.233 0 0 1 1.482 2.299 5.05 5.05 0 0 1 .67 2.645"/>
                        </g>
                        <g clip-path="url(#erdgb)">
                            <path fill="#263238"
                                  d="M95.124 222.98a3.602 3.602 0 0 1-.976-.658 12.422 12.422 0 0 1-3.399-4.51 3.626 3.626 0 0 1-.37-1.123 33.382 33.382 0 0 0 2.052 3.387 32.344 32.344 0 0 0 2.693 2.904"/>
                        </g>
                        <g clip-path="url(#erdgb)">
                            <path fill="#263238"
                                  d="M100.086 218.624a1.817 1.817 0 0 1-.082-.53c0-.34-.059-.835-.065-1.446-.021-1.596.087-3.19.324-4.769.24-1.58.604-3.139 1.087-4.662.189-.588.36-1.047.494-1.364.052-.17.129-.33.23-.477-.136.644-.307 1.28-.512 1.905a38.217 38.217 0 0 0-1.405 9.367 18.47 18.47 0 0 1-.07 1.976"/>
                        </g>
                        <g clip-path="url(#erdgb)" opacity=".3">
                            <g opacity=".3">
                                <g opacity=".3">
                                    <g opacity=".3"/>
                                    <g clip-path="url(#erdgc)" opacity=".3">
                                        <path d="M101.515 207.323a24.696 24.696 0 0 0-1.37 10.09 26.136 26.136 0 0 0 1.37-10.09"/>
                                    </g>
                                </g>
                            </g>
                        </g>
                        <g clip-path="url(#erdgb)">
                            <path fill="#4373b2"
                                  d="M170.003 241.079l1.694-13.489 64.166-35.684s9.408 15.21 13.006 49.184l-45.086-.211z"/>
                        </g>
                        <g clip-path="url(#erdgb)">
                            <path fill="#b6a7d3"
                                  d="M136.024 109.177l-8.185 9.101-1.352 18.122 15.746 32.286 18.057 38.007c1.487 3.264 2.987 10.784 1.928 15.059 0 0-2.94 10.348 11.983 11.036 8.138.376 17.499-1.764 24.325-3.804l.177-.053a46.504 46.504 0 0 0 27.447-21.985l10.472-14.458c-2.317-9.014-5.88-6.556-7.285-9.96-6.774-16.352-12.348-28.165-12.348-28.165l-22.437-51.695c-3.358-7.591-7.591-10.372-12.525-11.59a23.519 23.519 0 0 0-11.124.036l-11.025 2.652z"/>
                        </g>
                        <g clip-path="url(#erdgb)">
                            <path fill="#b6a7d3"
                                  d="M127.304 202.795c4.598-5.292 12.054-41.776 12.054-41.776l-11.519-42.74s-5.327 6.062-6.98 11.86l-9.654 51.077s-3.528.735-3.493 6.15c.006 3.646 19.592 15.429 19.592 15.429"/>
                        </g>
                        <g clip-path="url(#erdgb)">
                            <path fill="#263238"
                                  d="M147.913 180.452a2.453 2.453 0 0 1-.218-.365l-.588-1.07-2.052-3.969c-1.717-3.392-4.069-8.02-6.662-13.135l-6.561-13.177-1.964-4.01c-.218-.453-.388-.817-.518-1.094a1.91 1.91 0 0 1-.164-.394c.084.115.157.237.217.365l.588 1.07 2.052 3.969c1.717 3.387 4.069 8.02 6.662 13.141l6.585 13.177 1.964 4.01c.212.453.382.817.518 1.094.061.123.108.254.14.388"/>
                        </g>
                        <g clip-path="url(#erdgb)">
                            <path fill="#263238"
                                  d="M229.113 186.079c-.03.168-.076.333-.135.494l-.447 1.399-.33 1.011c-.129.37-.287.759-.452 1.176-.335.847-.676 1.823-1.176 2.852-.235.523-.482 1.07-.735 1.64-.253.57-.588 1.135-.876 1.735-.588 1.211-1.329 2.44-2.087 3.751a64.091 64.091 0 0 1-12.566 15.041c-1.176.976-2.24 1.929-3.322 2.722-.54.4-1.04.812-1.552 1.176-.511.365-1.011.688-1.482 1.017-.929.665-1.828 1.176-2.598 1.659-.389.235-.747.458-1.082.652l-.941.482-1.3.688c-.15.084-.305.158-.464.224.136-.105.282-.198.435-.277l1.27-.74.917-.524c.335-.2.688-.435 1.07-.676.759-.494 1.647-1.017 2.564-1.693l1.464-1.03c.506-.358 1.006-.77 1.535-1.175 1.076-.8 2.146-1.764 3.292-2.729a65.72 65.72 0 0 0 12.513-14.975c.758-1.3 1.505-2.523 2.099-3.722.306-.588.623-1.176.888-1.723l.758-1.623c.5-1.023.859-1.987 1.206-2.822.17-.424.335-.812.476-1.176l.353-1 .5-1.382c.058-.155.126-.306.205-.452"/>
                        </g>
                        <g clip-path="url(#erdgb)" opacity=".3">
                            <g opacity=".3">
                                <g opacity=".3">
                                    <g opacity=".3"/>
                                    <g clip-path="url(#erdgd)" opacity=".3">
                                        <path d="M187.655 184.08c4.797-.089 11.571-.888 16.18-2.229 4.61-1.34 9.02-3.651 12.319-7.12 3.299-3.47 5.433-8.232 5.292-13-2.71 5.885-8.003 11.248-14.018 14.293-2.005 1.017-5.62 2.793-6.032 2.264z"/>
                                    </g>
                                </g>
                            </g>
                        </g>
                        <g clip-path="url(#erdgb)">
                            <path fill="#ffbe9d"
                                  d="M166.781 176.56c.835-.924 21.35-16.264 21.35-16.264l16.822 17.81-28.282 11.947z"/>
                        </g>
                        <g clip-path="url(#erdgb)">
                            <path fill="#b6a7d3"
                                  d="M200.884 180.228c3.787-1.528 7.444-3.145 9.925-5.056 11.76-9.073 12.536-17.258 11.007-23.243-1.675-6.586-28.423-52.919-31.374-55.9-2.952-2.98-12.278-7.755-21.597 2.881-5.41 6.18 5.345 23.596 5.345 23.596l19.11 33.445c-5.38-.912-7.839 4.61-7.839 4.61z"/>
                        </g>
                        <g clip-path="url(#erdgb)">
                            <path fill="#263238"
                                  d="M185.867 161.99a1.06 1.06 0 0 1-.041-.2 5.64 5.64 0 0 1 .33-2.847 4.703 4.703 0 0 1 2.575-2.404 10.488 10.488 0 0 1 4.574-.712l-.118.188c-1.952-3.392-4.28-7.461-6.79-11.83l-8.685-15.288-2.605-4.65a120.54 120.54 0 0 0-.694-1.276 4.425 4.425 0 0 1-.223-.453c.105.132.198.274.276.423.188.306.435.723.747 1.247l2.687 4.604c2.258 3.921 5.345 9.307 8.767 15.252l6.738 11.86.118.2h-.236a10.431 10.431 0 0 0-4.474.652 4.564 4.564 0 0 0-2.523 2.27 5.243 5.243 0 0 0-.44 2.187c0 .523.035.776.017.776"/>
                        </g>
                        <g clip-path="url(#erdgb)">
                            <path fill="#263238"
                                  d="M220.981 149.677c.072.121.13.249.177.382.1.253.282.623.44 1.123.48 1.406.762 2.873.836 4.357a16.348 16.348 0 0 1-.136 3.075 19.434 19.434 0 0 1-.846 3.428c-.444 1.22-.991 2.4-1.635 3.528a27.97 27.97 0 0 1-2.352 3.445 36.167 36.167 0 0 1-11.383 9.097 30.955 30.955 0 0 1-4.069 1.764c-.494.188-.888.294-1.147.376a2.202 2.202 0 0 1-.411.106c.125-.066.254-.12.388-.165.259-.1.647-.223 1.129-.43a37.735 37.735 0 0 0 4.01-1.845 37.326 37.326 0 0 0 11.248-9.102 28.398 28.398 0 0 0 2.352-3.399 23.766 23.766 0 0 0 1.629-3.487c.387-1.097.674-2.226.858-3.375.152-1 .21-2.011.17-3.022a16.913 16.913 0 0 0-.728-4.333c-.142-.5-.306-.876-.383-1.141a1.685 1.685 0 0 1-.147-.382"/>
                        </g>
                        <g clip-path="url(#erdgb)" opacity=".3">
                            <g opacity=".3">
                                <g opacity=".3">
                                    <g opacity=".3"/>
                                    <g clip-path="url(#erdge)" opacity=".3">
                                        <path d="M193.152 155.95a15.333 15.333 0 0 1 10.725 6.28c.313.393.534.851.647 1.34.1.504-.1 1.02-.512 1.324a1.347 1.347 0 0 1-1.329-.06 4.409 4.409 0 0 1-1.023-.934c-2.699-3.057-4.992-5.65-8.36-7.95"/>
                                    </g>
                                </g>
                            </g>
                        </g>
                        <g clip-path="url(#erdgb)">
                            <path fill="#263238"
                                  d="M203.565 167.51c-.047 0-.44-.764-1.176-1.987a30.708 30.708 0 0 0-3.192-4.504 25.535 25.535 0 0 0-4.057-3.728c-1.135-.84-1.894-1.293-1.864-1.34.195.07.382.16.558.27.353.188.841.494 1.435.894a22.143 22.143 0 0 1 4.157 3.704 25.219 25.219 0 0 1 3.151 4.598c.336.63.588 1.147.741 1.511.107.183.19.379.247.582"/>
                        </g>
                        <g clip-path="url(#erdgb)">
                            <path fill="#263238"
                                  d="M182.28 91.096c-1.577.06-3.139.328-4.645.8a15.197 15.197 0 0 0-4.504 2.381 13.96 13.96 0 0 0-5.591 10.725 14.976 14.976 0 0 0 .617 5.05 17.447 17.447 0 0 0 2.005 4.27s-.082-.083-.212-.253a9.03 9.03 0 0 1-.54-.782 13.327 13.327 0 0 1-1.459-3.17 14.96 14.96 0 0 1-.694-5.127 14.052 14.052 0 0 1 5.704-10.942 15.087 15.087 0 0 1 4.61-2.352 13.459 13.459 0 0 1 3.433-.588c.412-.035.73 0 .947 0 .109-.017.22-.02.33-.012"/>
                        </g>
                        <g clip-path="url(#erdgb)">
                            <path fill="#e0e0e0"
                                  d="M133.313 191.723l-.729-1.434-1.646-.747s-7.056 1.135-8.773 4.069c-1.717 2.934-8.514 13.406-8.232 15.493.283 2.087 2.07 3.205 3.27 2.758 1.199-.447 3.416-3.358 3.416-3.358l.946-.123 11.172 2.57 1.329-2.294-10.407-3.833 5.662-.559 4.957-5.292z"/>
                        </g>
                        <g clip-path="url(#erdgb)">
                            <path fill="#e0e0e0"
                                  d="M143.909 209.427a6.255 6.255 0 0 0 .929 5.792c1.834 2.417 4.568 6.21 7.144 9.584 2.01 2.629 15.546 9.59 22.86 13.23a6.25 6.25 0 0 0 8.026-2.17 53.871 53.871 0 0 0 6.15-12.747 6.256 6.256 0 0 0-3.28-7.591l-31.487-14.853a6.25 6.25 0 0 0-8.584 3.634z"/>
                        </g>
                        <g clip-path="url(#erdgb)">
                            <path fill="#263238"
                                  d="M143.909 209.427s0-.111.088-.317l.3-.923c.27-.817.67-2.005 1.176-3.528a6.767 6.767 0 0 1 1.246-2.387 6.262 6.262 0 0 1 2.6-1.87 6.358 6.358 0 0 1 3.656-.276c.657.17 1.29.412 1.894.723l1.91.894 18.352 8.625 10.836 5.11a6.392 6.392 0 0 1 3.47 5.15 7.109 7.109 0 0 1-.518 3.229 46.663 46.663 0 0 1-1.176 3.08 55.545 55.545 0 0 1-2.864 5.88 52.98 52.98 0 0 1-1.658 2.74 8.667 8.667 0 0 1-.964 1.282 6.415 6.415 0 0 1-7.232 1.435c-1.811-.87-3.528-1.764-5.24-2.634-3.398-1.764-6.602-3.452-9.554-5.127a91.376 91.376 0 0 1-4.228-2.511 24.34 24.34 0 0 1-3.68-2.675 15.95 15.95 0 0 1-1.323-1.659c-.406-.552-.806-1.093-1.176-1.61a331.326 331.326 0 0 0-2.188-2.94 210.033 210.033 0 0 1-1.899-2.57 18.78 18.78 0 0 1-1.523-2.223 6.213 6.213 0 0 1-.617-3.633c.045-.433.152-.856.318-1.259 0 0 0 .106-.083.318a6.81 6.81 0 0 0-.176.947 6.246 6.246 0 0 0 .664 3.574c.459.765.972 1.496 1.535 2.188l1.923 2.552 2.199 2.94 1.205 1.605c.399.574.837 1.12 1.311 1.634a24.284 24.284 0 0 0 3.652 2.629 97.062 97.062 0 0 0 4.227 2.487c2.94 1.664 6.162 3.357 9.555 5.098 1.7.858 3.445 1.763 5.233 2.622a6.102 6.102 0 0 0 6.891-1.382 8.49 8.49 0 0 0 .93-1.235 35.661 35.661 0 0 0 1.64-2.728 54.92 54.92 0 0 0 2.851-5.844 71.38 71.38 0 0 0 1.176-3.064c.412-.98.586-2.044.506-3.104a6.072 6.072 0 0 0-3.299-4.904l-10.819-5.127-18.327-8.685-1.905-.905a9.245 9.245 0 0 0-1.846-.718 6.18 6.18 0 0 0-3.528.253 6.1 6.1 0 0 0-2.546 1.8 6.727 6.727 0 0 0-1.247 2.351c-.529 1.517-.946 2.693-1.229 3.528-.14.388-.246.694-.329.912-.082.217-.17.252-.17.252"/>
                        </g>
                        <g clip-path="url(#erdgb)">
                            <path fill="#7229b5"
                                  d="M131.508 196.968s.723-5.186 2.493-5.71c1.77-.522 12.789-3.827 12.789-3.827l30.199-20.72 11.789 22.62-27.636 11.17s-1.081 1.418-2.287.871c0 0-1.828 2.223-2.799 2.352-.97.13-.623.653-.623.653s-8.096 13.523-10.043 13.788c-1.946.264-4.398-.1-4.327-1.676 0 0-3.646 1.323-4.822-.076 0 0-2.828 2.152-4.668-.153a27.696 27.696 0 0 1-1.311-2.57s-2.446 3.028-4.657 1.976c-2.105-1.005-1.635-4.263-.482-6.256 1.152-1.993 6.385-12.442 6.385-12.442"/>
                        </g>
                        <g clip-path="url(#erdgb)">
                            <path fill="#263238"
                                  d="M120.148 209.21c-.047 0-.217-.3-.588-.753a5.88 5.88 0 0 0-3.816-2.122 6.243 6.243 0 0 1-.946-.094 2.08 2.08 0 0 1 .964-.118c1.599.07 3.072.89 3.975 2.21.204.256.345.556.411.877"/>
                        </g>
                        <g clip-path="url(#erdgb)">
                            <path fill="#263238"
                                  d="M129.615 200.508c-.462.43-.957.824-1.482 1.176-.929.7-2.222 1.646-3.569 2.793a26.127 26.127 0 0 0-3.193 3.204c-.735.894-1.123 1.494-1.176 1.47.052-.164.13-.319.23-.458.235-.398.494-.78.776-1.147a20.953 20.953 0 0 1 3.157-3.299 40.994 40.994 0 0 1 3.646-2.74 11.028 11.028 0 0 1 1.61-1"/>
                        </g>
                        <g clip-path="url(#erdgb)">
                            <path fill="#fff" d="M155.715 224.274l8.702-16.563 15.705 7.173-10.242 18.08z"/>
                        </g>
                        <g clip-path="url(#erdgb)">
                            <path fill="#263238"
                                  d="M145.326 209.863a4.258 4.258 0 0 1-.453 1.1 23.234 23.234 0 0 1-1.452 2.486 22.514 22.514 0 0 1-1.764 2.282 3.96 3.96 0 0 1-.853.835c-.07-.06 1.111-1.435 2.352-3.287 1.24-1.852 2.081-3.458 2.17-3.416"/>
                        </g>
                        <g clip-path="url(#erdgb)">
                            <path fill="#263238"
                                  d="M139.558 210.092a11.797 11.797 0 0 1-1.323 3.398 11.96 11.96 0 0 1-2.082 2.993c-.076-.059.87-1.381 1.811-3.14.94-1.758 1.505-3.28 1.594-3.251"/>
                        </g>
                        <g clip-path="url(#erdgb)">
                            <path fill="#263238"
                                  d="M133.113 208.957a11.885 11.885 0 0 1-1.176 2.534 6.733 6.733 0 0 1-1.699 2.217c-.059-.059.706-1.023 1.435-2.352.729-1.329 1.352-2.446 1.44-2.399"/>
                        </g>
                        <g clip-path="url(#erdgb)">
                            <path fill="#263238"
                                  d="M154.927 200.367c0 .082-3.216-.706-7.138-1.764-3.922-1.059-7.055-1.988-7.055-2.064 0-.077 3.216.706 7.138 1.764 3.921 1.058 7.079 1.981 7.055 2.064"/>
                        </g>
                        <g clip-path="url(#erdgb)">
                            <path fill="#263238"
                                  d="M153.587 197.603a3.795 3.795 0 0 1-1.135-.27 21.392 21.392 0 0 1-2.622-1.023 22.23 22.23 0 0 1-2.476-1.341 3.918 3.918 0 0 1-.935-.694c.047-.076 1.564.847 3.528 1.764s3.663 1.447 3.64 1.564"/>
                        </g>
                        <g clip-path="url(#erdgb)" opacity=".3">
                            <g opacity=".3">
                                <g opacity=".3">
                                    <g opacity=".3"/>
                                    <g clip-path="url(#erdgf)" opacity=".3">
                                        <path d="M158.85 199.661c-.136-.259-.224-.523-.354-.788a22.097 22.097 0 0 0-5.791-7.308c-.224-.183-.523-.37-.776-.23a.5.5 0 0 0-.194.588c.071.208.19.398.347.553 2.193 2.575 3.957 5.039 6.15 7.614.165.218.764-.135.617-.429"/>
                                    </g>
                                </g>
                            </g>
                        </g>
                        <g clip-path="url(#erdgb)">
                            <path fill="#263238"
                                  d="M106.825 221.804c.285-.467.612-.907.976-1.317a182.206 182.206 0 0 1 5.098-6.02 8.358 8.358 0 0 1 1.14-1.176c-.283.469-.61.91-.976 1.317-.63.787-1.517 1.864-2.51 3.04a121.966 121.966 0 0 1-2.588 2.975 9.105 9.105 0 0 1-1.14 1.181"/>
                        </g>
                        <g clip-path="url(#erdgb)">
                            <path fill="#263238"
                                  d="M109.224 230.177c-.077 0 1.217-3.528 2.887-7.843 1.67-4.316 3.086-7.768 3.163-7.732.076.035-1.211 3.528-2.881 7.843-1.67 4.316-3.087 7.768-3.17 7.732"/>
                        </g>
                        <g clip-path="url(#erdgb)">
                            <path fill="#263238"
                                  d="M116.75 225.544a50.018 50.018 0 0 1-.106-5.539 51.066 51.066 0 0 1 .206-5.538c.137 1.842.173 3.691.106 5.538a51.069 51.069 0 0 1-.206 5.54"/>
                        </g>
                        <g clip-path="url(#erdgb)">
                            <path fill="#263238"
                                  d="M97.864 73.216c0-2.993.952-4.005.253-4.563-2.505-2.005-4.74-7.274-4.945-9.614-.477-5.503 4.174-10.342 4.174-10.342.865-2.94 2.058-6.839 5.55-9.543 3.787-2.94 9.72-6.433 14.465-5.821 4.745.611 8.173.905 11.207 4.604l-6.626 58.75c-3.681-.11-6.956-2.433-9.455-5.144-2.5-2.71-4.475-5.88-7.056-8.485-1.94-1.946-2.352-1.146-5.692-5.562-2.081-2.746-1.905-1.535-1.875-4.28"/>
                        </g>
                        <g clip-path="url(#erdgb)">
                            <path fill="#ffbe9d"
                                  d="M144.844 55.276c-4.152-11.9-14.541-19.403-26.319-14.923l-1.064.482c-10.713 4.81-15.936 17.041-12 28.106 3.65 10.29 7.82 21.602 10.277 26.9 5.086 10.966 16.887 7.732 16.887 7.732l5.01 9.525c10.762 2.134 21.455-3.967 25.095-14.317z"/>
                        </g>
                        <g clip-path="url(#erdgb)">
                            <path fill="#263238"
                                  d="M113.392 77.267a1.764 1.764 0 0 0 2.235.911 1.658 1.658 0 0 0 .999-2.121l-.011-.03a1.764 1.764 0 0 0-2.235-.912 1.658 1.658 0 0 0-.999 2.121l.011.03"/>
                        </g>
                        <g clip-path="url(#erdgb)">
                            <path fill="#263238"
                                  d="M109.959 73.357c.288.117 1.087-1.3 2.78-2.058 1.694-.759 3.323-.465 3.411-.753.053-.135-.312-.417-1.035-.588a4.736 4.736 0 0 0-2.84.347 4.55 4.55 0 0 0-2.099 1.9c-.364.652-.376 1.105-.217 1.152"/>
                        </g>
                        <g clip-path="url(#erdgb)">
                            <path fill="#263238"
                                  d="M128.839 70.775a1.729 1.729 0 0 0 2.228.906 1.647 1.647 0 0 0 1.005-2.1l-.017-.046a1.723 1.723 0 0 0-2.229-.912 1.652 1.652 0 0 0-1.003 2.11l.016.042"/>
                        </g>
                        <g clip-path="url(#erdgb)">
                            <path fill="#263238"
                                  d="M125.71 65.966c.283.123 1.118-1.27 2.835-1.982 1.717-.711 3.328-.382 3.428-.67.053-.13-.3-.418-1.018-.588a4.707 4.707 0 0 0-2.851.276c-1.353.641-2.217 1.5-2.152 1.835-.359.623-.377 1.058-.241 1.129"/>
                        </g>
                        <g clip-path="url(#erdgb)">
                            <path fill="#263238"
                                  d="M126.54 81.436c-.036-.1-1.176.188-2.976.735-.452.152-.9.246-1.105 0a2.45 2.45 0 0 1-.288-1.418c-.059-1.228-.13-2.516-.2-3.868-.323-5.492-.77-9.926-.994-9.914-.223.012-.129 4.48.194 9.996.094 1.346.177 2.634.265 3.863a2.745 2.745 0 0 0 .535 1.8c.265.256.635.374 1 .317.267-.044.528-.121.776-.23 1.764-.711 2.834-1.182 2.793-1.281"/>
                        </g>
                        <g clip-path="url(#erdgb)">
                            <path fill="#263238"
                                  d="M123.9 64.284c.505.176 1.505-1.405 3.098-2.94 1.594-1.534 3.175-2.487 3.01-2.999-.087-.235-.646-.305-1.475-.07a6.994 6.994 0 0 0-2.846 1.717 7.06 7.06 0 0 0-1.81 2.787c-.26.847-.213 1.411.023 1.505"/>
                        </g>
                        <g clip-path="url(#erdgb)">
                            <path fill="#263238"
                                  d="M108.712 68.735c.394.4 1.811-.13 3.528-.259s3.228.083 3.528-.376c.135-.223-.124-.635-.794-.994a5.467 5.467 0 0 0-2.94-.505 5.292 5.292 0 0 0-2.781 1.023c-.541.47-.717.917-.541 1.111"/>
                        </g>
                        <g clip-path="url(#erdgb)">
                            <path fill="#263238"
                                  d="M128.568 37.937a22.568 22.568 0 0 0-1.176-.43c-3.28-1.176-6.967-1.822-9.79.077-1.623 1.088-2.657 2.875-4.216 4.063-2.104 1.605-4.903 1.946-7.22 3.228a9.995 9.995 0 0 0-5.027 7.644c-.241 2.457.411 5.115-.741 7.29-.535 1.012-2.352 1.717-2.981 2.664 0 0-1.123 7.997 5.01 7.644l.77-.653 6.015-7.955c2.005-.676 4.069-1.176 4.945-3.017.588-1.217.423-2.687.505-4.05l3.217-3.823c1.017-.252 2.14-.347 3.151-.588a9.131 9.131 0 0 0 6.81-11.254z"/>
                        </g>
                        <g clip-path="url(#erdgb)">
                            <path fill="#263238"
                                  d="M118.49 47.11c1.353-1.106 4.08-3.452 4.334-5.146.552-3.675 2.869-7.014 6.185-8.231a8.467 8.467 0 0 1 9.637 3.151c3.928-1.646 8.82-.823 12.265 2.07a14.11 14.11 0 0 1 4.816 12.242c-.147 1.176-.44 2.399 0 3.527.588 1.376 2.04 2.023 3.24 2.852 3.275 2.252 4.945 6.556 4.874 10.584-.07 4.028-.623 5.645-2.475 7.232-3.634 3.116 4.186 10.396-2.793 13.388l-12.665-24.624-.03.047a2.805 2.805 0 0 1-2.61 1.476c-7.056-.453-6.603-7.856-5.198-9.25a25.85 25.85 0 0 1-6.015-2.58c-1.864-1.177-5.027-3.493-5.674-5.669-1.435.665-8.485-.588-7.89-1.07"/>
                        </g>
                        <g clip-path="url(#erdgb)">
                            <path fill="#ffbe9d"
                                  d="M145.925 64.09c.153-.165 6.574-5.639 9.72 2.011 3.145 7.65-5.186 9.225-5.292 9.014-.106-.212-4.428-11.025-4.428-11.025"/>
                        </g>
                        <g clip-path="url(#erdgb)">
                            <path fill="#eb996e"
                                  d="M151.5 71.258c0-.042.17.035.44.047.373.004.733-.135 1.006-.388.682-.63.835-2.194.306-3.587a4.71 4.71 0 0 0-1.176-1.764 1.669 1.669 0 0 0-1.423-.588.735.735 0 0 0-.641.688c0 .253.1.388.065.417-.036.03-.218-.059-.289-.4a.946.946 0 0 1 .106-.588c.146-.245.382-.425.659-.5a2.017 2.017 0 0 1 1.875.589 4.883 4.883 0 0 1 1.341 1.94c.588 1.564.388 3.328-.588 4.116-.366.29-.843.4-1.3.3-.293-.106-.405-.259-.381-.282"/>
                        </g>
                        <g clip-path="url(#erdgb)">
                            <path fill="#263238"
                                  d="M125.752 88.28c.076.158 1.434-.318 3.04-1.059 1.605-.74 2.845-1.47 2.775-1.628-.07-.16-1.429.317-3.034 1.064-1.605.747-2.852 1.47-2.781 1.623"/>
                        </g>
                        <g clip-path="url(#erdgb)">
                            <path fill="#eb996e"
                                  d="M132.625 103.573s9.46-5.88 13.43-12.936c0 0 1.24 10.72-11.542 16.505z"/>
                        </g>
                        <g clip-path="url(#erdgb)">
                            <path fill="#eb996e"
                                  d="M123.265 65.342c0 .03-.16.16-.5.2a1.635 1.635 0 0 1-1.235-.394 1.653 1.653 0 0 1-.54-1.176c0-.34.105-.529.14-.517.035.012 0 .206.077.494.109.778.766 1.363 1.552 1.382.294.011.488-.024.506.011"/>
                        </g>
                        <g clip-path="url(#erdgb)">
                            <path fill="#eb996e"
                                  d="M118.655 67.983c0-.036.088-.2.2-.494a2.26 2.26 0 0 0 .153-1.176 2.347 2.347 0 0 0-.477-1.088c-.194-.247-.358-.37-.329-.412.03-.04.224.036.488.265.697.647.846 1.694.359 2.51-.183.295-.365.418-.394.394"/>
                        </g>
                        <g clip-path="url(#erdgb)">
                            <path fill="#fff"
                                  d="M150.67 139.075l3.228.688-3.233.947c-.41.123-.72.458-.812.876l-.805 3.869-.87-3.798a1.176 1.176 0 0 0-.877-.87l-3.234-.736 3.328-.934c.405-.136.704-.48.782-.9l.741-3.728.841 3.704c.106.447.462.791.911.882"/>
                        </g>
                        <g clip-path="url(#erdgb)">
                            <path fill="#fff"
                                  d="M143.327 148.83l1.44.306-1.44.417a.53.53 0 0 0-.365.394l-.359 1.723-.4-1.693a.512.512 0 0 0-.388-.388l-1.44-.324 1.482-.417a.535.535 0 0 0 .37-.4l.33-1.658.37 1.646c.044.199.2.353.4.394"/>
                        </g>
                        <g clip-path="url(#erdgb)">
                            <path fill="#fff"
                                  d="M186.502 101.48l1.44.306-1.44.417a.53.53 0 0 0-.364.394l-.36 1.723-.399-1.694a.512.512 0 0 0-.388-.388l-1.44-.323 1.481-.418a.523.523 0 0 0 .37-.4l.33-1.657.37 1.646c.044.199.2.353.4.394"/>
                        </g>
                        <g clip-path="url(#erdgb)">
                            <path fill="#263238"
                                  d="M262.281 240.632c0 .082-58.722.153-131.12.153S0 240.714 0 240.632c0-.083 58.71-.153 131.161-.153s131.12.047 131.12.153"/>
                        </g>
                        <g clip-path="url(#erdgb)">
                            <path fill="#fff" d="M16.358 240.65v-8.291h160.307v8.29z"/>
                        </g>
                        <g clip-path="url(#erdgb)">
                            <path fill="#fafafa" d="M130.303 232.359h45.227v8.29h-45.227z"/>
                        </g>
                        <g clip-path="url(#erdgb)">
                            <path fill="#263238"
                                  d="M26.706 240.655a3.189 3.189 0 0 1-.188-.364c-.118-.236-.288-.588-.512-.994a20.86 20.86 0 0 0-4.51-5.756c-.352-.318-.64-.588-.84-.735a1.796 1.796 0 0 1-.306-.277 3.2 3.2 0 0 1 .335.241c.212.153.512.394.865.706a18.894 18.894 0 0 1 5.01 6.797c.057.124.106.252.146.382"/>
                        </g>
                        <g clip-path="url(#erdgb)">
                            <path fill="#263238"
                                  d="M38.848 240.802c-.79.007-1.58-.074-2.352-.24a14.11 14.11 0 0 1-2.387-.736 15.884 15.884 0 0 1-2.734-1.476 16.158 16.158 0 0 1-4.01-3.94 13.586 13.586 0 0 1-1.176-2.004s.035.047.088.135l.241.4a16.706 16.706 0 0 0 4.945 5.304 16.05 16.05 0 0 0 2.705 1.475c.775.322 1.578.574 2.399.753.314.075.632.134.952.176.241.045.485.074.73.089l.458.04z"/>
                        </g>
                        <g clip-path="url(#erdgb)">
                            <path fill="#263238"
                                  d="M50.06 236.58s-.722.083-2.04.095c-.658 0-1.464 0-2.398-.077a32.742 32.742 0 0 1-1.494-.147l-.811-.112a3.137 3.137 0 0 1-.841-.205 1.135 1.135 0 0 1-.67-.588.805.805 0 0 1 .27-.9 2.26 2.26 0 0 1 .911-.394c.324-.088.653-.176.994-.247a23.953 23.953 0 0 1 9.26-.276c.857.133 1.702.33 2.53.588.436.139.809.428 1.052.817.212.42.235.91.064 1.347-.148.439-.438.817-.823 1.076a3.592 3.592 0 0 1-1.235.505c-.858.188-1.705.335-2.54.476-1.609.275-3.236.436-4.868.483a17.646 17.646 0 0 1-8.061-1.559 13.415 13.415 0 0 1-4.451-3.316 10.6 10.6 0 0 1-.924-1.176c-.194-.294-.288-.447-.288-.447s.112.147.306.43c.288.412.602.805.94 1.176a13.526 13.526 0 0 0 4.458 3.216 17.634 17.634 0 0 0 8.026 1.523 35.618 35.618 0 0 0 4.845-.488 57.935 57.935 0 0 0 2.534-.477c.418-.09.817-.255 1.176-.488.361-.247.634-.603.776-1.017a1.536 1.536 0 0 0-.065-1.246 1.764 1.764 0 0 0-.988-.765 17.932 17.932 0 0 0-2.504-.588 24.198 24.198 0 0 0-9.214.26c-.341.07-.67.158-.988.24-.319.057-.62.185-.882.376a.73.73 0 0 0-.247.794c.111.266.322.477.588.588.264.104.541.171.823.2l.812.118a32.03 32.03 0 0 0 3.88.253c.63 0 1.176 0 1.512-.03z"/>
                        </g>
                        <g clip-path="url(#erdgb)">
                            <path fill="#263238"
                                  d="M78.443 232.923h-.224c-.147 0-.358-.047-.635-.04a8.407 8.407 0 0 0-2.31.258c-1.12.291-2.2.718-3.217 1.27-1.244.68-2.45 1.43-3.61 2.246-1.247.852-2.446 1.652-3.593 2.293a15.287 15.287 0 0 1-3.198 1.388 8.598 8.598 0 0 1-2.317.37c-.286.01-.573 0-.858-.03h.223c.212.011.423.011.635 0a8.997 8.997 0 0 0 2.293-.405 15.798 15.798 0 0 0 3.164-1.4c1.14-.646 2.352-1.446 3.58-2.298a36.39 36.39 0 0 1 3.628-2.246 13.79 13.79 0 0 1 3.246-1.253 8.33 8.33 0 0 1 2.352-.223c.282.005.562.029.84.07"/>
                        </g>
                        <g clip-path="url(#erdgb)">
                            <path fill="#263238"
                                  d="M89.38 236.592l-.442-.094a7.962 7.962 0 0 0-1.282-.159 7.584 7.584 0 0 0-2.028.165 7.9 7.9 0 0 0-1.223.365 2.16 2.16 0 0 0-1.135.782 1.176 1.176 0 0 0 .194 1.405c.386.414.872.721 1.411.894a6.416 6.416 0 0 0 3.687.076c.66-.158 1.305-.37 1.928-.635a6.498 6.498 0 0 0 1.835-1.029c.566-.46.901-1.146.917-1.876a3.086 3.086 0 0 0-.835-2.01 4.06 4.06 0 0 0-1.881-1.176 6.013 6.013 0 0 0-2.164-.2c-1.38.157-2.732.498-4.022 1.011a42.233 42.233 0 0 0-6.409 2.94 44.405 44.405 0 0 0-4.01 2.558c-.458.329-.805.588-1.04.764-.236.176-.371.27-.371.27s.476-.405 1.382-1.076a43.248 43.248 0 0 1 3.998-2.593 40.995 40.995 0 0 1 6.409-2.969c1.3-.518 2.661-.862 4.051-1.023a6.302 6.302 0 0 1 2.211.2c.74.21 1.411.616 1.94 1.176.534.57.842 1.313.865 2.093a2.606 2.606 0 0 1-.965 1.964c-.56.449-1.19.804-1.863 1.052-.632.262-1.282.474-1.947.636a6.583 6.583 0 0 1-3.751-.089 3.414 3.414 0 0 1-1.446-.929 1.516 1.516 0 0 1-.353-.746 1.129 1.129 0 0 1 .159-.77 2.239 2.239 0 0 1 1.175-.812 8.52 8.52 0 0 1 1.235-.359 8.08 8.08 0 0 1 2.04-.147c.434.025.865.088 1.288.188.318.106.441.153.441.153"/>
                        </g>
                        <g clip-path="url(#erdgb)">
                            <path fill="#263238"
                                  d="M102.544 240.602v-.429a9.568 9.568 0 0 0 0-1.176 8.181 8.181 0 0 0-1.135-3.651 6.763 6.763 0 0 0-2.81-2.558 7.572 7.572 0 0 0-1.517-.506 4.57 4.57 0 0 1 1.552.424 6.678 6.678 0 0 1 2.881 2.575 7.948 7.948 0 0 1 1.117 3.71c.041.539.012 1.08-.088 1.611"/>
                        </g>
                        <g clip-path="url(#erdgb)">
                            <path fill="#263238"
                                  d="M119.678 240.526a18.312 18.312 0 0 1-2.47-.512 24.672 24.672 0 0 1-2.604-.858 28.41 28.41 0 0 1-3.029-1.447 27.052 27.052 0 0 1-4.927-3.575 18.63 18.63 0 0 1-1.317-1.299l-.34-.37c-.077-.083-.113-.13-.113-.13s.047.036.13.118l.358.353c.3.311.759.746 1.335 1.264a27.391 27.391 0 0 0 7.961 4.992 26.07 26.07 0 0 0 2.582.882c.746.211 1.364.358 1.764.447l.493.1a.75.75 0 0 1 .177.035"/>
                        </g>
                        <g clip-path="url(#erdgb)">
                            <path fill="#263238"
                                  d="M131.714 238.21l-.165-.077c-.106-.053-.247-.147-.452-.241a11.563 11.563 0 0 0-1.764-.688 18.086 18.086 0 0 0-2.74-.588c-1.041-.153-2.2-.253-3.41-.412-2.423-.3-4.587-1.023-5.88-1.981a7.572 7.572 0 0 1-1.412-1.264c-.282-.347-.417-.553-.417-.553s.047.041.123.13c.077.087.177.228.33.393.426.462.906.873 1.428 1.223 1.3.93 3.44 1.629 5.88 1.929 1.206.158 2.352.264 3.41.423.93.121 1.849.318 2.746.588.61.188 1.2.432 1.764.73.335.246.559.387.559.387"/>
                        </g>
                    </g>
                </g>
            </g>
        </g>
    </g>
</svg>
