<svg xmlns="http://www.w3.org/2000/svg" width="694" height="714" viewBox="0 0 694 714"><g><g><g><path fill="#3f3d56" d="M499.771 169.63h-3.9V62.653c0-34.194-27.72-61.915-61.915-61.915h-226.65c-34.196 0-61.916 27.72-61.916 61.915v586.883c0 34.195 27.72 61.915 61.915 61.915h226.648c34.195 0 61.915-27.72 61.915-61.915V245.778h3.9z"/></g><g><path fill="#fff" d="M483.171 58.506v595.175c0 25.919-21.01 46.94-46.935 46.952H204.929c-25.943 0-46.97-21.023-46.973-46.959V58.506c.008-25.935 21.036-46.954 46.971-46.95h28.058a22.33 22.33 0 0 0 20.656 30.74H385.51a22.329 22.329 0 0 0 20.656-30.74h30.055c25.917 0 46.937 21.008 46.951 46.933z"/></g><g><path fill="#e6e6e6" d="M425.837 344.26a2.286 2.286 0 0 1 2.284 2.284v50.985a2.286 2.286 0 0 1-2.284 2.284H220.3a2.286 2.286 0 0 1-2.284-2.284v-50.985a2.286 2.286 0 0 1 2.284-2.284zm0 57.075a3.811 3.811 0 0 0 3.806-3.806v-50.985a3.81 3.81 0 0 0-3.806-3.806H220.3a3.811 3.811 0 0 0-3.806 3.806v50.984a3.81 3.81 0 0 0 3.806 3.806h205.537z"/></g><g><path fill="#e6e6e6" d="M283.865 361.1a2.664 2.664 0 1 0 0 5.328H409.47a2.665 2.665 0 1 0 .087-5.328H283.865z"/></g><g><path fill="#e6e6e6" d="M283.865 377.083a2.664 2.664 0 1 0 0 5.33H409.47a2.665 2.665 0 1 0 .087-5.329H283.865z"/></g><g><path fill="#e6e6e6" d="M425.837 429.24a2.286 2.286 0 0 1 2.284 2.284v50.985a2.286 2.286 0 0 1-2.284 2.284H220.3a2.286 2.286 0 0 1-2.284-2.284v-50.985a2.286 2.286 0 0 1 2.284-2.284zm3.806 53.27v-50.986a3.81 3.81 0 0 0-3.806-3.806H220.3a3.811 3.811 0 0 0-3.806 3.806v50.984a3.81 3.81 0 0 0 3.806 3.806h205.537a3.81 3.81 0 0 0 3.806-3.805z"/></g><g><path fill="#e6e6e6" d="M283.865 446.355a2.664 2.664 0 1 0 0 5.33H409.47a2.664 2.664 0 1 0 .087-5.33l-125.692.001z"/></g><g><path fill="#e6e6e6" d="M283.865 462.343a2.664 2.664 0 1 0 0 5.33H409.47a2.664 2.664 0 1 0 .087-5.33l-125.692.001z"/></g><g><path fill="#e6e6e6" d="M425.837 514.498a2.286 2.286 0 0 1 2.284 2.284v50.985a2.286 2.286 0 0 1-2.284 2.284H220.3a2.286 2.286 0 0 1-2.284-2.284v-50.985a2.286 2.286 0 0 1 2.284-2.284zm0 57.075a3.81 3.81 0 0 0 3.806-3.806v-50.985a3.81 3.81 0 0 0-3.806-3.806H220.3a3.811 3.811 0 0 0-3.806 3.806v50.984a3.81 3.81 0 0 0 3.806 3.806h205.537z"/></g><g><path fill="#e6e6e6" d="M283.865 531.616a2.664 2.664 0 1 0 0 5.33H409.47a2.665 2.665 0 1 0 .087-5.329H283.865z"/></g><g><path fill="#e6e6e6" d="M283.865 547.603a2.664 2.664 0 1 0 0 5.33H409.47a2.665 2.665 0 1 0 .087-5.329H283.865z"/></g><g><path fill="#e6e6e6" d="M692.186 713.311H1.84c-1 0-1.812-.468-1.812-1.045s.812-1.045 1.812-1.045h690.349c1 0 1.812.468 1.812 1.045s-.814 1.045-1.814 1.045z"/></g><g><g><path fill="#e6e6e6" d="M29.1 672.547a19.474 19.474 0 0 0 18.805-3.313c6.587-5.528 8.652-14.637 10.332-23.07l4.97-24.945-10.405 7.165c-7.483 5.152-15.134 10.47-20.316 17.933-5.182 7.463-7.443 17.651-3.28 25.727"/></g><g><path fill="#f2f2f2" d="M30.706 704.483c-1.31-9.542-2.657-19.206-1.738-28.85.816-8.565 3.429-16.93 8.749-23.789a39.575 39.575 0 0 1 10.153-9.2c1.015-.64 1.95.968.939 1.606a37.622 37.622 0 0 0-14.885 17.955c-3.24 8.241-3.76 17.224-3.2 25.978.338 5.294 1.053 10.553 1.774 15.806a.964.964 0 0 1-.65 1.144.936.936 0 0 1-1.144-.65z"/></g><g><path fill="#e6e6e6" d="M40.133 689.174a14.336 14.336 0 0 0 12.491 6.447c6.323-.3 11.595-4.713 16.34-8.9L83 674.33l-9.289-.444c-6.68-.32-13.533-.618-19.9 1.442-6.367 2.06-12.23 7.018-13.394 13.6"/></g><g><path fill="#f2f2f2" d="M27.004 709.97c6.3-11.157 13.618-23.556 26.685-27.519a29.782 29.782 0 0 1 11.224-1.159c1.192.1.894 1.94-.3 1.837a27.665 27.665 0 0 0-17.912 4.74c-5.051 3.437-8.983 8.216-12.311 13.285-2.039 3.1-3.865 6.341-5.691 9.573-.582 1.032-2.282.287-1.695-.758z"/></g></g><g><g><path fill="#6c63ff" d="M229.956 371.723c0-8.829 7.157-15.986 15.986-15.986s15.986 7.157 15.986 15.986c0 8.83-7.157 15.986-15.986 15.986s-15.986-7.157-15.986-15.986z"/></g><g><path fill="#e6e6e6" d="M238.29 368.737c-.185 0-.334 1.193-.334 2.664s.149 2.665.333 2.665h15.72c.183.024.335-1.149.338-2.62a5.943 5.943 0 0 0-.328-2.708h-15.73z"/></g></g><g><g><path fill="#6c63ff" d="M229.956 457.016c0-8.829 7.157-15.986 15.986-15.986s15.986 7.157 15.986 15.986c0 8.83-7.157 15.986-15.986 15.986s-15.986-7.157-15.986-15.986z"/></g><g><path fill="#e6e6e6" d="M238.29 454.03c-.185 0-.334 1.193-.334 2.664s.149 2.665.333 2.665h15.72c.183.024.335-1.149.338-2.62a5.943 5.943 0 0 0-.328-2.708h-15.73z"/></g></g><g><g><path fill="#6c63ff" d="M229.956 542.274c0-8.829 7.157-15.986 15.986-15.986s15.986 7.157 15.986 15.986c0 8.83-7.157 15.986-15.986 15.986s-15.986-7.157-15.986-15.986z"/></g><g><path fill="#e6e6e6" d="M238.29 539.288c-.185 0-.334 1.193-.334 2.664s.149 2.665.333 2.665h15.72c.183.024.335-1.149.338-2.62a5.943 5.943 0 0 0-.328-2.708h-15.73z"/></g></g><g><path fill="#e6e6e6" d="M372.213 257.407a4.487 4.487 0 0 1-4.012-2.45 52.875 52.875 0 0 0-31.372-26.411 60 60 0 0 0-8.408-1.904l-.58-.088 29.92-93.546.506.017c58.127 15.795 91.385 62.382 100.193 76.284a4.494 4.494 0 0 1-1.797 6.423l-82.43 41.197a4.507 4.507 0 0 1-2.02.478z"/></g><g><path fill="#feb8b8" d="M551.65 456.731a9.276 9.276 0 0 1 12.711-6.383l22.283-24.293 4.164 16.616-21.8 20.521a9.326 9.326 0 0 1-17.359-6.462z"/></g><g><path fill="#feb8b8" d="M599.508 699.07h-13.613l-6.478-52.518h20.1z"/></g><g><path fill="#2f2e41" d="M602.981 694.623h-26.815c-9.436 0-17.086 7.65-17.088 17.086v.557h43.9z"/></g><g><path fill="#feb8b8" d="M677.697 685.581l-12.729 4.832-24.693-46.8 18.787-7.13z"/></g><g><path fill="#2f2e41" d="M679.368 680.192l-25.069 9.515c-8.822 3.35-13.259 13.217-9.911 22.04l.2.518 41.045-15.578z"/></g><g><path fill="#2f2e41" d="M632.878 524.385l11.283 60.714s30.625 85.428 28.476 87.577c-2.149 2.15-31.7 9.671-30.088 4.836 1.612-4.835-35.461-77.369-35.461-77.369z"/></g><g><path fill="#e4e4e4" d="M587.122 414.055s-22.777 29.774-19.792 31.4c2.985 1.626 14.547 10.236 14.547 10.236l11.764-32.284z"/></g><g><path fill="#2f2e41" d="M580.761 444.107s-3.76 27.94-2.149 33.85c1.612 5.91.537 173.542-.537 176.228-1.074 2.686-4.3 11.82-2.686 16.118 1.614 4.298 23.64 15.044 26.864 11.283 3.224-3.76 26.866-140.768 26.866-140.768s33.312-82.742 25.79-90.8c-7.522-8.058-74.148-5.91-74.148-5.91z"/></g><g><path fill="#feb8b8" d="M602.772 238.22c0-14.54 11.787-26.326 26.327-26.326 14.54 0 26.327 11.787 26.327 26.327 0 14.54-11.787 26.327-26.327 26.327-14.54 0-26.327-11.787-26.327-26.327z"/></g><g><path fill="#e4e4e4" d="M601.589 297.721a18.665 18.665 0 0 1 6-11.04l4.8-14.675h28.209l7.861 12.335c8.5 3.661 14.8 9.467 15.039 16.311 1.3 4.545-4.3 148.828-5.91 154.2-.473 1.564-6.9 2.4-15.936 2.772-8.285.338-18.756.29-28.809.06-16.645-.388-32.162-1.28-34.773-1.758-5.905-1.073 22.934-154.815 23.519-158.205z"/></g><g><path fill="#feb8b8" d="M626.529 489.051a9.276 9.276 0 0 0 1.826-14.106l15.569-29.056-17.059 1.558-12.168 27.352a9.326 9.326 0 0 0 11.833 14.251z"/></g><g><path fill="#e4e4e4" d="M629.117 281.848s-24.715 10.208-15.58 36c9.133 25.792 19.341 56.415 19.341 56.415s-12.895 69.31-12.895 72c0 2.69-8.059 17.193-4.836 19.88 3.223 2.687 24.715 8.06 25.252 5.373a181.716 181.716 0 0 1 5.91-18.268c1.075-2.149 26.327-69.31 23.1-75.22-2.372-4.349-4.454-44.2-5.388-64.939a34.107 34.107 0 0 0-17.781-28.715c-5.004-2.662-10.836-4.098-17.123-2.526z"/></g><g><path fill="#2f2e41" d="M639.232 249.987c-2-.922-4.317-1.113-6.479-1.686-7.734-2.052-12.916-9.689-11.261-16.6a7.48 7.48 0 0 0 .406-2.736c-.289-2.047-2.687-3.368-4.986-3.837-2.299-.469-4.746-.4-6.943-1.155a9.39 9.39 0 0 1-6.136-7.366 13.674 13.674 0 0 1 2.327-9.17l.831 2.087a7.77 7.77 0 0 0 2.714-3.545 5.5 5.5 0 0 1 4.26 2.992c1.333.687 1.525-2.133 3-2.549.64-.07 1.286.07 1.838.4 2.967 1.21 6.414.175 9.6-.495a41.222 41.222 0 0 1 16.771-.017c3.663.763 7.29 2.093 9.912 4.455a20.35 20.35 0 0 1 4.636 6.96c2.812 6.182 4.67 12.871 3.741 19.473a26.05 26.05 0 0 1-7.436 14.6c-2.123 2.137-9.05 9.591-12.848 8.321-4.778-1.6 1.676-7.535-3.947-10.132z"/></g><g><path fill="#3f3d56" d="M314.006 267.198a8 8 0 1 1 16 0 8 8 0 0 1-16 0z"/></g><g><path fill="#6c63ff" d="M268.318 257.29a4.492 4.492 0 0 1-2.1-.524l-81.953-43.235a4.5 4.5 0 0 1-1.741-6.324 181.666 181.666 0 0 1 40.99-45.976c28.302-22.43 60.495-33.684 95.679-33.495a151.884 151.884 0 0 1 39.064 5.289l.505.137-29.927 93.54-.422-.063a66.68 66.68 0 0 0-8.138-.722c-30.45-.859-43.647 19.876-47.908 28.83a4.414 4.414 0 0 1-2.62 2.31c-.46.154-.943.233-1.429.233z"/></g><g><path fill="#3f3d56" d="M358.136 133.508l-21.16 94.56a60.386 60.386 0 0 0-8.48-1.92l29.63-92.64z"/></g></g></g></svg>
